<?xml version="1.0" encoding="UTF-8" standalone="no"?>
<svg
   width="22"
   height="22"
   version="1.1"
   viewBox="0 0 22 22"
   id="svg3"
   xml:space="preserve"
   xmlns="http://www.w3.org/2000/svg"
   xmlns:svg="http://www.w3.org/2000/svg"><defs
     id="defs3" /><g
     id="g4"
     transform="matrix(0.61111111,0,0,0.61111111,0,-0.006437)"><path
       fill="#00247d"
       d="M 0,9.059 V 13 H 5.628 Z M 4.664,31 H 13 V 25.163 Z M 23,25.164 V 31 h 8.335 z M 0,23 v 3.941 L 5.63,23 Z M 31.337,5 H 23 v 5.837 z M 36,26.942 V 23 H 30.369 Z M 36,13 V 9.059 L 30.371,13 Z M 13,5 H 4.664 L 13,10.837 Z"
       id="path1-3" /><path
       fill="#cf1b2b"
       d="m 25.14,23 9.712,6.801 c 0.471,-0.479 0.808,-1.082 0.99,-1.749 L 28.627,23 Z M 13,23 h -2.141 l -9.711,6.8 c 0.521,0.53 1.189,0.909 1.938,1.085 L 13,23.943 Z M 23,13 h 2.141 L 34.852,6.2 C 34.331,5.67 33.664,5.291 32.915,5.115 L 23,12.057 Z M 10.859,13 1.148,6.2 C 0.677,6.68 0.34,7.282 0.157,7.949 L 7.372,13 Z"
       id="path2-6" /><path
       fill="#eeeeee"
       d="M 36,21 H 21 v 10 h 2 V 25.164 L 31.335,31 H 32 c 1.117,0 2.126,-0.461 2.852,-1.199 L 25.14,23 h 3.487 l 7.215,5.052 C 35.935,27.715 36,27.366 36,27 V 26.942 L 30.369,23 H 36 Z M 0,21 v 2 H 5.63 L 0,26.941 V 27 c 0,1.091 0.439,2.078 1.148,2.8 L 10.859,23 H 13 v 0.943 L 3.086,30.884 C 3.38,30.954 3.684,31 4,31 H 4.664 L 13,25.163 V 31 h 2 V 21 Z M 36,9 C 36,7.909 35.561,6.922 34.852,6.2 L 25.141,13 H 23 V 12.057 L 32.915,5.115 C 32.62,5.046 32.316,5 32,5 H 31.337 L 23,10.837 V 5 H 21 V 15 H 36 V 13 H 30.371 L 36,9.059 Z M 13,5 v 5.837 L 4.664,5 H 4 C 2.882,5 1.874,5.461 1.148,6.2 L 10.859,13 H 7.372 L 0.157,7.949 C 0.065,8.286 0,8.634 0,9 V 9.059 L 5.628,13 H 0 v 2 H 15 V 5 Z"
       id="path3-7" /><path
       fill="#cf1b2b"
       d="M 21,15 V 5 H 15 V 15 H 0 v 6 h 15 v 10 h 6 V 21 h 15 v -6 z"
       id="path4" /></g></svg>
