<svg id="visual" viewBox="0 0 1000 300" width="1000" height="300" xmlns="http://www.w3.org/2000/svg" xmlns:xlink="http://www.w3.org/1999/xlink" version="1.1">
    <rect x="0" y="0" width="1000" height="300" fill="#001220"></rect>
    <path d="M0 237L23.8 236.3C47.7 235.7 95.3 234.3 143 231.5C190.7 228.7 238.3 224.3 286 223.8C333.7 223.3 381.3 226.7 428.8 226.8C476.3 227 523.7 224 571.2 215.7C618.7 207.3 666.3 193.7 714 197.8C761.7 202 809.3 224 857 223.5C904.7 223 952.3 200 976.2 188.5L1000 177L1000 0L976.2 0C952.3 0 904.7 0 857 0C809.3 0 761.7 0 714 0C666.3 0 618.7 0 571.2 0C523.7 0 476.3 0 428.8 0C381.3 0 333.7 0 286 0C238.3 0 190.7 0 143 0C95.3 0 47.7 0 23.8 0L0 0Z" fill="#00d8ff"></path>
    <path d="M0 162L23.8 163.3C47.7 164.7 95.3 167.3 143 170.8C190.7 174.3 238.3 178.7 286 174.2C333.7 169.7 381.3 156.3 428.8 152C476.3 147.7 523.7 152.3 571.2 160.8C618.7 169.3 666.3 181.7 714 186.3C761.7 191 809.3 188 857 181.8C904.7 175.7 952.3 166.3 976.2 161.7L1000 157L1000 0L976.2 0C952.3 0 904.7 0 857 0C809.3 0 761.7 0 714 0C666.3 0 618.7 0 571.2 0C523.7 0 476.3 0 428.8 0C381.3 0 333.7 0 286 0C238.3 0 190.7 0 143 0C95.3 0 47.7 0 23.8 0L0 0Z" fill="#00baff"></path>
    <path d="M0 145L23.8 136C47.7 127 95.3 109 143 109.8C190.7 110.7 238.3 130.3 286 138.8C333.7 147.3 381.3 144.7 428.8 140.2C476.3 135.7 523.7 129.3 571.2 130.2C618.7 131 666.3 139 714 143C761.7 147 809.3 147 857 143.5C904.7 140 952.3 133 976.2 129.5L1000 126L1000 0L976.2 0C952.3 0 904.7 0 857 0C809.3 0 761.7 0 714 0C666.3 0 618.7 0 571.2 0C523.7 0 476.3 0 428.8 0C381.3 0 333.7 0 286 0C238.3 0 190.7 0 143 0C95.3 0 47.7 0 23.8 0L0 0Z" fill="#0098ff"></path>
    <path d="M0 116L23.8 111.8C47.7 107.7 95.3 99.3 143 92.5C190.7 85.7 238.3 80.3 286 75C333.7 69.7 381.3 64.3 428.8 63.2C476.3 62 523.7 65 571.2 65.8C618.7 66.7 666.3 65.3 714 71C761.7 76.7 809.3 89.3 857 92.2C904.7 95 952.3 88 976.2 84.5L1000 81L1000 0L976.2 0C952.3 0 904.7 0 857 0C809.3 0 761.7 0 714 0C666.3 0 618.7 0 571.2 0C523.7 0 476.3 0 428.8 0C381.3 0 333.7 0 286 0C238.3 0 190.7 0 143 0C95.3 0 47.7 0 23.8 0L0 0Z" fill="#006cff"></path>
    <path d="M0 50L23.8 51.7C47.7 53.3 95.3 56.7 143 56.3C190.7 56 238.3 52 286 50C333.7 48 381.3 48 428.8 51C476.3 54 523.7 60 571.2 63.5C618.7 67 666.3 68 714 62C761.7 56 809.3 43 857 40.5C904.7 38 952.3 46 976.2 50L1000 54L1000 0L976.2 0C952.3 0 904.7 0 857 0C809.3 0 761.7 0 714 0C666.3 0 618.7 0 571.2 0C523.7 0 476.3 0 428.8 0C381.3 0 333.7 0 286 0C238.3 0 190.7 0 143 0C95.3 0 47.7 0 23.8 0L0 0Z" fill="#0027ff"></path>
</svg>