<svg width="128" height="128" version="1.1" viewBox="0 0 33.867 33.867" xml:space="preserve" xmlns="http://www.w3.org/2000/svg" xmlns:xlink="http://www.w3.org/1999/xlink"><defs><linearGradient id="a"><stop stop-color="#91f500" offset="0"/><stop stop-color="#10c900" offset="1"/></linearGradient><linearGradient id="c" x1="72.139" x2="72.139" y1="76.606" y2="184.51" gradientUnits="userSpaceOnUse" xlink:href="#a"/><linearGradient id="b" x1="122.93" x2="122.93" y1="124.15" y2="184.51" gradientUnits="userSpaceOnUse" xlink:href="#a"/></defs><g transform="matrix(.26185 0 0 .26185 -7.5336 -17.252)" stroke-dashoffset="47.6" stroke-linecap="round"><path d="m72.137 76.606c-21.153.0011-38.366 17.15-38.366 38.303.005 14.853 8.5976 28.364 22.047 34.668l-8.7798 34.928h50.201l-8.7798-34.928c13.449-6.3039 22.042-19.815 22.047-34.668 0-21.153-17.213-38.302-38.366-38.303z" fill="url(#c)" stroke="#fff" stroke-width="10" style="paint-order:stroke fill markers"/><path d="m56.016 125.46a2.718 2.718 0 00-2.0176.50977 2.718 2.718 0 00-.55664 3.8027c4.1614 5.5868 11.203 8.7985 18.697 8.8008h.002c7.4969-.002 14.539-3.2152 18.699-8.8047a2.718 2.718 0 00-.55859-3.8027 2.718 2.718 0 00-3.8027.55664c-2.978 4.0007-8.4131 6.6109-14.338 6.6133-5.9241-.002-11.361-2.61-14.34-6.6094a2.718 2.718 0 00-1.7852-1.0664zm30.287-28.396c2.1915 0 3.9558 1.7643 3.9558 3.9558v11.206c0 2.1915-1.7643 3.9558-3.9558 3.9558-2.1915 0-3.9558-1.7643-3.9558-3.9558v-11.206c0-2.1915 1.7643-3.9558 3.9558-3.9558zm-28.327 0c2.1915 0 3.9558 1.7643 3.9558 3.9558v11.206c0 2.1915-1.7643 3.9558-3.9558 3.9558-2.1915 0-3.9558-1.7643-3.9558-3.9558v-11.206c0-2.1915 1.7643-3.9558 3.9558-3.9558z" color="#000000" fill="#fff"/><path d="m118.07 124.15c-2.4657 0-4.4509 1.9852-4.4509 4.4509v16.414h-16.415c-2.4657 0-4.4509 1.9852-4.4509 4.4509v9.724c0 2.4657 1.9852 4.4509 4.4509 4.4509h16.415v16.414c0 2.4657 1.9852 4.4509 4.4509 4.4509h9.724c2.4657 0 4.4509-1.9852 4.4509-4.4509v-16.414h16.414c2.4657 0 4.4509-1.9852 4.4509-4.4509v-9.724c0-2.4657-1.9852-4.4509-4.4509-4.4509h-16.414v-16.414c0-2.4657-1.9852-4.4509-4.4509-4.4509z" fill="url(#b)" stroke="#fff" stroke-width="10" style="paint-order:stroke fill markers"/></g></svg>
